<svg width="492" height="492" viewBox="0 0 492 492" fill="none" xmlns="http://www.w3.org/2000/svg">
<path fill-rule="evenodd" clip-rule="evenodd" d="M90.0941 404.369C89.7263 404.01 89.3627 403.642 89.0033 403.265L88.9969 403.263C88.9893 403.254 88.9816 403.245 88.974 403.236C69.5762 382.822 57.7359 355.944 50.2647 329.137C45.9815 312.534 44.5804 295.614 43.179 278.691C42.9062 275.396 42.6334 272.101 42.3392 268.809C41.2344 252.123 40.4754 234.767 41.4453 218.009C42.2231 200.47 45.7903 183.712 49.5331 166.13L49.5668 165.971C56.8724 129.821 75.1943 95.1932 106.32 74.102C124.63 61.5412 146.171 54.6245 167.67 50.1265C201.706 42.6031 235.518 40.1571 269.917 41.2463C318.028 41.0672 368.193 54.9743 403.867 88.6284C428.824 113.335 447.24 146.203 450.31 181.509C449.806 202.128 449.933 222.105 450.919 242.537C451.12 259.094 451.141 276.808 448.575 293.602C446.884 306.566 443.199 320.37 439.798 333.108C439.638 333.709 439.478 334.307 439.319 334.904C420.015 418.278 351.735 443.326 273.958 448.566C265.72 448.947 257.426 449.116 249.134 449.284C240.58 449.457 232.029 449.631 223.545 450.038C220.582 450.144 217.606 450.282 214.621 450.42C203.875 450.919 193.006 451.423 182.199 450.43C147.573 445.603 114.743 429.223 90.0941 404.369ZM150.457 409.96C162.25 417.288 174.728 423.617 187.742 428.825C189.743 429.625 191.757 430.458 193.785 431.296C203.5 435.313 213.541 439.465 223.994 440.77C249.541 444.278 275.23 435.598 297.243 423.158C318.857 409.983 335.966 391.734 353.101 373.456C364.521 361.274 375.954 349.08 388.739 338.367C397.702 330.275 406.738 321.523 414.018 311.779C431.678 285.979 444.407 254.649 443.024 222.878C442.846 209.883 437.076 197.649 431.402 186.355C425.135 173.029 418.378 159.97 410.687 147.59C405.667 159.931 397.938 170.792 390.202 181.663C389.777 182.261 389.352 182.858 388.928 183.455C378.834 198.773 371.731 215.452 364.599 232.199C359.986 243.031 355.361 253.892 349.906 264.432C341.805 283.141 333.239 302.842 317.894 316.759C304.831 329.734 286.748 336.608 269.57 343.138C267.363 343.977 265.171 344.81 263.006 345.65C244.512 353.74 226.885 362.479 209.949 373.007C202.114 377.498 194.808 382.744 187.484 388.002C178.49 394.461 169.469 400.938 159.409 406.06C156.588 407.442 153.586 408.76 150.457 409.96ZM349.677 81.874C310.111 53.6685 260.191 39.7651 213.3 60.0285C186.586 69.5102 167.686 90.0406 148.977 110.364C142.926 116.937 136.895 123.488 130.626 129.637C124.045 136.879 116.916 143.66 109.776 150.451C99.7825 159.956 89.7673 169.482 81.2032 180.321C73.4928 189.934 67.6273 201.378 62.8602 212.715C50.1783 241.88 46.7268 275.881 59.0841 305.703C63.6888 317.455 69.2444 328.712 75.909 339.307C77.9718 342.202 80.1569 345.091 82.4334 347.96C88.3813 331.204 98.8911 314.519 108.14 299.835C112.113 293.528 115.854 287.59 118.9 282.174C126.547 269.547 132.881 256.201 139.242 242.799C141.456 238.135 143.672 233.464 145.949 228.815C148.08 224.051 150.002 218.99 151.95 213.861C157.504 199.235 163.267 184.061 174.69 173.663C189.335 159.016 208.553 149.858 227.716 142.284C246.616 134.472 264.729 126.013 282.813 117.154C291.921 112.897 300.802 107.546 309.723 102.171C322.685 94.3616 335.73 86.5018 349.677 81.874ZM112.042 380.249C112.039 380.247 112.037 380.244 112.034 380.242L112.032 380.244L112.029 380.244C102.415 370.118 103.722 353.441 106.016 339.405C111.434 312.131 123.629 284.14 144.753 264.679C151.793 258.024 159.272 251.806 167.045 245.985C173.078 241.657 179.976 238.16 186.902 234.649C197.619 229.216 208.404 223.748 216.162 215.112C227.107 204.316 235.247 191.174 243.401 178.009C245.33 174.895 247.26 171.779 249.228 168.693C259.852 152.371 273.101 138.003 288.389 126.182C307.105 110.644 362.567 92.1315 382.016 110.463C389.44 121.141 388.061 134.57 386.685 147.981C386.563 149.166 386.441 150.35 386.326 151.533C385.335 160.689 384.131 170.463 380.966 179.516C374.709 198.039 361.055 212.517 346.361 224.94C332.471 238.42 315.885 249.07 299.496 259.113C283.485 269.832 270.997 282.922 261.606 299.932C252.717 317.334 242.641 334.899 228.266 348.349C208.416 369.389 180.269 380.602 152.097 383.796C138.05 385.978 123.371 387.709 112.042 380.249Z" fill="#FBFBFB"/>
<mask id="mask0_1495_818" style="mask-type:alpha" maskUnits="userSpaceOnUse" x="67" y="60" width="367" height="367">
<ellipse cx="250.737" cy="243.268" rx="182.909" ry="182.771" fill="white"/>
</mask>
<g mask="url(#mask0_1495_818)">
<path d="M88.6973 403.21C56.8648 366.143 100.281 314.69 118.601 282.121C128.908 265.1 136.832 246.771 145.649 228.762C153.859 210.412 158.961 187.654 174.391 173.61C189.035 158.964 208.253 149.805 227.417 142.231C246.316 134.419 264.429 125.961 282.513 117.101C315.222 101.815 344.999 72.4183 384.211 78.4732C406.111 82.3308 419.217 105.876 415.66 126.69C413.391 149.279 400.833 166.226 388.628 183.403C372.006 208.63 363.494 237.545 349.606 264.38C341.506 283.088 332.939 302.789 317.594 316.707C302.852 331.349 281.718 338.221 262.707 345.597C244.212 353.687 226.586 362.426 209.649 372.954C192.192 382.961 177.361 396.715 159.109 406.008C138.265 416.213 107.548 423.02 88.7036 403.212L88.6973 403.21ZM111.734 380.191C123.064 387.657 137.747 385.926 151.797 383.743C179.969 380.549 208.116 369.337 227.967 348.296C242.342 334.846 252.418 317.282 261.307 299.88C270.697 282.869 283.185 269.78 299.197 259.06C315.585 249.017 332.172 238.367 346.062 224.888C360.755 212.464 374.409 197.986 380.667 179.463C383.831 170.41 385.035 160.637 386.026 151.48C387.449 136.912 389.796 122.031 381.717 110.41C362.267 92.0789 306.806 110.591 288.09 126.129C272.802 137.95 259.553 152.319 248.928 168.64C238.642 184.772 229.396 201.709 215.863 215.06C203.09 229.276 182.114 234.908 166.746 245.933C158.972 251.754 151.493 257.971 144.454 264.626C123.33 284.087 111.135 312.078 105.716 339.353C103.422 353.388 102.115 370.066 111.729 380.191L111.734 380.191Z" fill="#FBFBFB"/>
</g>
</svg>
